<!-- icon666.com - MILLIONS vector ICONS FREE --><svg version="1.1" id="Layer_1" xmlns="http://www.w3.org/2000/svg" xmlns:xlink="http://www.w3.org/1999/xlink" x="0px" y="0px" viewBox="0 0 512.001 512.001" style="enable-background:new 0 0 512.001 512.001;" xml:space="preserve"><path style="" d="M128.153,222.984H64.19c-12.611,0-23.714,8.307-27.274,20.405l-2.675,9.093h123.861l-2.675-9.093 C151.867,231.292,140.763,222.984,128.153,222.984z" fill="#333E48"></path><path style="opacity:0.15;enable-background:new ;" d="M155.427,243.389c-0.349-1.188-0.792-2.328-1.281-3.438H38.198 c-0.489,1.111-0.932,2.25-1.281,3.438l-2.676,9.093h123.861L155.427,243.389z" fill="#000000"></path><path style="fill: rgb(255, 170, 33);" d="M260.318,226.704l-42.035-14.178l20.316-60.23c10.734-31.823,37.868-55.65,70.813-62.181 l80.167-15.893l8.627,43.513l-80.167,15.893c-17.402,3.45-31.735,16.034-37.404,32.845L260.318,226.704z" fill="#FFD13F"></path><path style="opacity:0.08;enable-background:new ;" d="M389.579,74.222l-25.044,4.964l0.009,28.683 c0.001,5.461,0.684,10.879,1.984,16.147l31.678-6.28L389.579,74.222z" fill="#000000"></path><path style="fill: rgb(255, 170, 33);" d="M421.739,85.742l-32.214-18.489c-3.933-2.258-8.836,0.582-8.835,5.117l0.012,41.829 c0.003,9.88,2.276,19.626,6.644,28.488l50.468,102.391l29.071-10.581l-27.982-125.441C436.708,99.219,430.479,90.759,421.739,85.742 z" fill="#FFD13F"></path><path style="opacity:0.08;enable-background:new ;" d="M461.522,210.451c-1.559,0.278-3.111,0.678-4.636,1.232l-21.013,7.649 c-3.146,1.145-5.947,2.819-8.344,4.88l10.285,20.867l29.071-10.581L461.522,210.451z" fill="#000000"></path><path style="fill: rgb(255, 170, 33);" d="M488.226,301.307l-77.26,28.121c-5.264,1.916-10.014-3.848-7.125-8.65l18.053-29.999 c4.958-8.238,5.928-18.275,2.64-27.31l0,0c-5.089-13.981,2.119-29.438,16.099-34.525l21.013-7.649 c10.795-3.929,22.895-0.82,30.459,7.828l10.03,11.466c7.714,8.819,11.161,20.583,9.424,32.171l0,0 C509.601,285.833,500.648,296.786,488.226,301.307z" fill="#FFD13F"></path><rect x="46.812" y="328.993" style="" width="184.91" height="32.979" fill="#C3C6C8"></rect><rect x="46.812" y="328.993" style="opacity:0.1;enable-background:new ;" width="184.91" height="16.49" fill="#000000"></rect><path style="fill: rgb(255, 170, 33);" d="M314.15,223.686l-7.102-32.753c-2.35-10.838-11.938-18.57-23.028-18.57h-66.069 c-8.797,0-15.929,7.132-15.929,15.929v64.189H23.176c-6.663,0-12.064,5.401-12.064,12.064v52.38c0,6.663,5.401,12.065,12.064,12.065 H306.09c7.9,0,14.305-6.405,14.305-14.305v-32.739C320.394,262.359,318.301,242.829,314.15,223.686z" fill="#FFD13F"></path><path style="" d="M314.15,223.687l-7.102-32.754c-2.351-10.838-11.939-18.57-23.028-18.57h-66.069 c-8.797,0-15.929,7.132-15.929,15.929v64.189h-43.92v28.214c0,8.001,6.486,14.487,14.487,14.487h147.805v-13.235 C320.394,262.36,318.301,242.829,314.15,223.687z" fill="#333E48"></path><path style="fill: rgb(8, 171, 217);" d="M274.597,198.354h-37.322c-5.102,0-9.238,4.136-9.238,9.238v35.653c0,5.102,4.135,9.238,9.238,9.238 h38.946c3.62,0,6.907-2.115,8.407-5.41l2.844-6.247c1.451-3.189,1.862-6.753,1.172-10.187l-4.991-24.865 C282.788,201.459,278.999,198.354,274.597,198.354z" fill="#57C9E8"></path><g><path style="opacity:0.2;enable-background:new ;" d="M288.645,230.639l-3.663-18.251l-40.094,40.093h31.333 c3.62,0,6.907-2.115,8.407-5.41l2.844-6.247C288.924,237.638,289.335,234.073,288.645,230.639z" fill="#FFFFFF"></path><path style="opacity:0.2;enable-background:new ;" d="M237.276,198.354c-5.102,0-9.238,4.136-9.238,9.238v15.705 l24.942-24.942h-15.704V198.354z" fill="#FFFFFF"></path></g><path style="" d="M289.721,445.54H41.785C18.708,445.54,0,426.832,0,403.755l0,0c0-23.079,18.708-41.786,41.785-41.786 h247.936c23.077,0,41.785,18.708,41.785,41.786l0,0C331.506,426.832,312.798,445.54,289.721,445.54z" fill="#333E48"></path><rect x="41.786" y="382.86" style="opacity:0.2;enable-background:new ;" width="247.932" height="41.786" fill="#000000"></rect><g><circle style="" cx="41.786" cy="403.758" r="20.887" fill="#F0EFEF"></circle><circle style="" cx="289.718" cy="403.758" r="20.887" fill="#F0EFEF"></circle></g><g style="opacity:0.1;"><path d="M100.899,286.222H46.812c-4.52,0-8.185-3.663-8.185-8.185c0-4.521,3.665-8.185,8.185-8.185h54.087 c4.52,0,8.185,3.663,8.185,8.185C109.084,282.558,105.419,286.222,100.899,286.222z" fill="#000000"></path><path d="M100.899,308.043H46.812c-4.52,0-8.185-3.663-8.185-8.185c0-4.521,3.665-8.185,8.185-8.185h54.087 c4.52,0,8.185,3.663,8.185,8.185C109.084,304.379,105.419,308.043,100.899,308.043z" fill="#000000"></path></g><path style="" d="M158.102,270.308v10.388c0,8.001,6.486,14.487,14.487,14.487h10.387L158.102,270.308z" fill="#FF495C"></path></svg>